<svg xmlns="http://www.w3.org/2000/svg" viewBox="0 0 1066.2 453.7"><defs><style>.cls-1{fill:#dcf0fa;}.cls-2,.cls-4{fill:#9fc4d6;}.cls-10,.cls-12,.cls-13,.cls-14,.cls-15,.cls-16,.cls-17,.cls-18,.cls-19,.cls-2,.cls-20,.cls-21,.cls-22,.cls-23,.cls-24,.cls-25,.cls-26,.cls-27,.cls-28,.cls-29,.cls-30,.cls-6,.cls-7,.cls-8,.cls-9{fill-rule:evenodd;}.cls-3{fill:#bad9e8;}.cls-5,.cls-9{fill:#0f4283;}.cls-6{fill:#0a3266;}.cls-11,.cls-7{fill:#474747;}.cls-8{fill:#ffdba7;}.cls-10{fill:#072c5e;}.cls-12{fill:#a33e00;}.cls-13{fill:#b84700;}.cls-14{fill:#dc5500;}.cls-15{fill:#f0c17d;}.cls-16{fill:#632404;}.cls-17{fill:#f05c00;}.cls-18{fill:#828282;}.cls-19{fill:#4885d4;}.cls-20{fill:#031329;}.cls-22{fill:#aaaeaf;}.cls-23{fill:#a1a1a1;}.cls-24{fill:#b8b8b8;}.cls-25{fill:#d1d1d1;}.cls-26{fill:#cbebfa;}.cls-27{fill:#cbe5f1;}.cls-28{fill:#88898d;}.cls-29{fill:#fff;}.cls-30{fill:#9ac4d9;}</style></defs><title>Asset 2</title><g id="Layer_2" data-name="Layer 2"><g id="Layer_1-2" data-name="Layer 1"><rect class="cls-1" width="1066.2" height="453.7"/><path class="cls-2" d="M0,34.82,54.86,49.13,159.32,76.38l66.84,17.43,46.29,12.08H271.4L224.92,93.81l-67.1-17.43L52.94,49.13,0,35.38Z"/><path class="cls-2" d="M0,11.12l124.3,38C159,59.7,188.37,68.65,213.38,76.32l56.95,17.43,39.42,12.08H308.6L269,93.75,211.73,76.32c-25.21-7.68-54.68-16.63-89.55-27.22C88.25,38.8,48.18,26.6,0,12Z"/><path class="cls-2" d="M61.72.5c54.08,19.86,97,35.67,132,48.55,28.71,10.58,53,19.55,73.77,27.22,17.79,6.57,33.36,12.34,47.09,17.42,12.14,4.48,22.94,8.5,32.62,12.08h-1.09c-9.75-3.59-20.61-7.61-32.82-12.09L265.87,76.27c-20.87-7.68-45.35-16.61-74.3-27.22C156.5,36.19,113.32,20.36,58.92.5Z"/><path class="cls-2" d="M158.27.53,262.87,49C285.7,59.57,305,68.52,321.44,76.2c14.08,6.57,26.43,12.35,37.34,17.43,9.6,4.47,18.16,8.49,25.85,12.09h-1.1c-7.8-3.6-16.37-7.62-26-12.09-11-5.08-23.43-10.86-37.62-17.42-16.61-7.69-36-16.61-59.1-27.21C232.83,36.15,198.58,20.36,155.33.53Z"/><path class="cls-2" d="M254.21.53C286,20.33,311.3,36.1,331.87,49c16.95,10.58,31.24,19.52,43.4,27.19,10.43,6.57,19.56,12.35,27.61,17.42,7.11,4.49,13.4,8.51,19.11,12.1h-1.1c-5.76-3.59-12.13-7.61-19.3-12.09-8.13-5.08-17.36-10.86-27.89-17.43C361.41,68.48,347,59.54,329.85,49,309.07,36.1,283.55,20.33,251.41.53Z"/><path class="cls-2" d="M350,.53c20.89,19.8,37.42,35.55,50.86,48.38,11.08,10.58,20.3,19.53,28.23,27.17C436,82.67,441.76,88.43,447,93.5q6.94,6.72,12.41,12.1h-1.15c-3.72-3.61-7.91-7.62-12.61-12.1-5.32-5.08-11.28-10.85-18.18-17.42-8-7.65-17.49-16.61-28.69-27.17C385.13,36.06,368.31,20.33,347.09.53Z"/><path class="cls-2" d="M445.17.52c10.11,19.79,18,35.52,24.32,48.35,5.25,10.57,9.56,19.51,13.24,27.16,3.15,6.57,5.85,12.34,8.26,17.41,2.12,4.49,4,8.51,5.66,12.11h-1.1c-1.72-3.6-3.66-7.62-5.86-12.1-2.48-5.08-5.27-10.84-8.54-17.42-3.8-7.65-8.26-16.59-13.68-27.16C460.9,36,452.8,20.31,442.37.52Z"/><path class="cls-2" d="M540.58.52C539.76,20.28,539,36,538.2,48.84c-.64,10.57-1.31,19.5-1.86,27.13-.48,6.58-.89,12.35-1.3,17.41-.36,4.49-.7,8.51-1,12.11H533c.23-3.6.5-7.62.79-12.11.32-5.06.64-10.83,1-17.41.43-7.63,1-16.56,1.42-27.13.56-12.81,1.1-28.56,1.6-48.32Z"/><path class="cls-2" d="M635.33.52C623.66,20.26,614.21,36,606.41,48.79,600,59.37,594.54,68.29,589.8,75.91c-4.11,6.6-7.69,12.35-10.89,17.41-2.83,4.49-5.38,8.51-7.7,12.11h-1.1c2.27-3.61,4.75-7.62,7.51-12.12,3.11-5.06,6.6-10.81,10.6-17.41,4.62-7.62,9.94-16.55,16.17-27.12C611.94,36,621.18,20.26,632.52.52Z"/><path class="cls-2" d="M730.07.52c-22.54,19.73-40.59,35.42-55.44,48.22-12.26,10.55-22.57,19.51-31.44,27.11-7.71,6.61-14.51,12.34-20.47,17.41-5.27,4.49-10,8.51-14.26,12.12h-1.15c4.26-3.61,8.87-7.63,14.06-12.12,5.87-5.07,12.55-10.81,20.17-17.4,8.8-7.62,18.91-16.56,31-27.11C687.15,35.94,704.93,20.26,727.13.52Z"/><path class="cls-2" d="M824.28.52c-33.34,19.7-59.85,35.4-81.63,48.17-18,10.56-33.27,19.49-46.3,27.1-11.27,6.59-21.14,12.34-29.88,17.41l-20.86,12.12h-1.09L665.18,93.2c8.65-5.07,18.43-10.81,29.59-17.41,12.91-7.61,28-16.54,45.86-27.1C762.2,35.92,788.46,20.22,821.48.52Z"/><path class="cls-2" d="M918.49.52c-44,19.68-79.15,35.39-107.85,48.14-23.79,10.57-43.92,19.47-61,27.07-14.88,6.61-27.9,12.35-39.37,17.41-10.19,4.5-19.34,8.51-27.46,12.12h-1.09c8.11-3.62,17.14-7.63,27.26-12.13,11.39-5.06,24.31-10.8,39.08-17.41,17-7.6,37-16.5,60.61-27.07C837.12,35.91,872,20.2,915.82.52Z"/><path class="cls-2" d="M1012.43.52c-54.79,19.66-98.38,35.35-134.06,48.09C848.81,59.17,823.9,68.06,802.6,75.68,784.19,82.26,768,88,753.8,93.08c-12.59,4.49-23.82,8.52-34,12.12h-1.1c10.15-3.6,21.31-7.63,33.84-12.12C766.66,88,782.71,82.26,801,75.68c21.25-7.63,46-16.52,75.33-27.06,35.46-12.76,78.81-28.44,133.28-48.1Z"/><path class="cls-2" d="M1066.2,12.52c-47.28,14.17-86.71,26-120.2,36L855.61,75.62,797.37,93c-15,4.5-28.42,8.51-40.56,12.12h-1.15C767.74,101.53,781,97.51,796,93c16.93-5.07,36-10.82,58-17.4l89.93-27.05c34-10.23,74.08-22.33,122.31-36.87Z"/><path class="cls-2" d="M1066.2,35l-52.37,13.48L908.7,75.56,841.08,93c-17.44,4.49-33.09,8.53-47.17,12.14h-1.2c14-3.61,29.6-7.64,46.95-12.13L907,75.56l104.64-27.05L1066.2,34.4Z"/><path class="cls-2" d="M271.57,105.8l131.09-.19,130.83-.2,130.25-.2L793.6,105l-.61.15-129.54.2-130,.19-130.53.2-130.8.2Z"/><path class="cls-2" d="M250.28,100.27l142-.21q70.82-.09,141.58-.22l140.94-.2,140.47-.21c-.25.06-.48.11-.71.18l-140.12.21L533.86,100q-70.56.12-141.23.21L251,100.45Z"/><path class="cls-2" d="M225.05,93.7c51.62-.08,103.36-.15,155-.21l154.37-.22,153.48-.22,153-.22-.86.23q-76.29.09-152.54.21l-153.06.21-153.95.22-154.52.21Z"/><path class="cls-2" d="M194.79,85.82l170.48-.2,169.67-.23,168.47-.21L871.3,85l-1,.26-167.39.22-168,.21-169.16.22-169.94.22Z"/><path class="cls-2" d="M157.86,76.21,347.25,76l188.34-.21,186.84-.21,186-.2-1.22.31-185.41.21-186.3.21-187.73.2-188.71.21Z"/><path class="cls-2" d="M111.78,64.22,324.68,64l211.59-.18q105-.08,209.69-.18l208.64-.19-1.52.39q-103.87.12-207.82.2l-209,.17-210.81.2-212.11.18Z"/><path class="cls-2" d="M52.67,48.83q121.74-.06,243.11-.13l241.37-.16c79.73,0,159.54-.07,239-.13l237.51-.14-2,.51-236.53.15-238,.13-240.35.16-242.09.14Z"/><path class="cls-2" d="M0,28.41c85.94,0,171.91,0,257.45-.07q140.64-.06,280.7-.07,139.07,0,277.64-.08l250.41-.08v.67l-251.61.09q-137.9.06-276.46.06L258.75,29c-86,0-172.38,0-258.75.07Z"/><path class="cls-2" d="M0,0H1066.2V1H0Z"/><path class="cls-2" d="M0,418.89l54.86-14.32,104.46-27.25,66.83-17.43,46.3-12.07H271.4l-46.48,12.08-67.1,17.43L52.94,404.57,0,418.33Z"/><path class="cls-2" d="M0,442.58l124.3-38c34.69-10.6,64.07-19.56,89.08-27.22,21.49-6.59,40.4-12.37,56.94-17.43l39.43-12.09H308.6L269,360c-16.64,5.07-35.63,10.86-57.24,17.43-25.21,7.68-54.68,16.63-89.55,27.22L0,441.74Z"/><path class="cls-2" d="M61.72,453.21c54.08-19.87,97-35.67,132-48.55l73.77-27.22L314.54,360l32.62-12.09h-1.09c-9.75,3.58-20.61,7.6-32.82,12.09-13.82,5.07-29.54,10.85-47.38,17.42-20.87,7.68-45.35,16.6-74.3,27.22-35.07,12.85-78.25,28.68-132.66,48.55Z"/><path class="cls-2" d="M158.27,453.17l104.6-48.47c22.83-10.57,42.08-19.52,58.57-27.2l37.34-17.42L384.63,348h-1.1c-7.8,3.6-16.37,7.62-26,12.09L319.86,377.5c-16.61,7.68-36,16.6-59.1,27.2-27.93,12.85-62.18,28.64-105.43,48.47Z"/><path class="cls-2" d="M254.21,453.17c31.82-19.8,57.09-35.56,77.66-48.42,16.95-10.58,31.24-19.52,43.4-27.19,10.43-6.57,19.56-12.35,27.61-17.42,7.11-4.48,13.4-8.5,19.11-12.1h-1.1l-19.31,12.1L373.7,377.56c-12.29,7.66-26.73,16.61-43.85,27.19-20.78,12.86-46.3,28.62-78.44,48.42Z"/><path class="cls-2" d="M350,453.17c20.89-19.8,37.42-35.54,50.86-48.38,11.08-10.58,20.3-19.52,28.23-27.17C436,371,441.76,365.27,447,360.2q6.94-6.72,12.41-12.1h-1.15q-5.58,5.4-12.61,12.1c-5.32,5.07-11.28,10.84-18.18,17.41-8,7.65-17.49,16.61-28.69,27.17-13.64,12.86-30.46,28.59-51.68,48.39Z"/><path class="cls-2" d="M445.17,453.18c10.11-19.79,18-35.52,24.32-48.34,5.25-10.58,9.56-19.52,13.24-27.17,3.15-6.57,5.85-12.33,8.26-17.41,2.12-4.48,4-8.5,5.66-12.1h-1.1c-1.72,3.61-3.66,7.63-5.86,12.11-2.48,5.07-5.27,10.83-8.54,17.41-3.8,7.65-8.26,16.59-13.68,27.17-6.57,12.82-14.67,28.55-25.1,48.34Z"/><path class="cls-2" d="M540.58,453.19c-.82-19.76-1.61-35.52-2.39-48.33-.63-10.56-1.3-19.49-1.85-27.12-.48-6.59-.89-12.35-1.3-17.42-.36-4.49-.7-8.51-1-12.11H533c.22,3.6.5,7.62.79,12.11.32,5.06.64,10.83,1,17.41.43,7.64,1,16.57,1.42,27.13.56,12.81,1.1,28.57,1.6,48.33Z"/><path class="cls-2" d="M635.33,453.19c-11.67-19.74-21.12-35.49-28.92-48.28-6.45-10.58-11.87-19.5-16.61-27.11-4.11-6.61-7.69-12.36-10.89-17.42-2.83-4.49-5.38-8.5-7.7-12.11h-1.1c2.26,3.6,4.75,7.62,7.51,12.11,3.11,5.06,6.6,10.81,10.6,17.42,4.62,7.61,9.94,16.54,16.17,27.11,7.55,12.8,16.79,28.54,28.13,48.28Z"/><path class="cls-2" d="M730.07,453.19c-22.54-19.74-40.59-35.42-55.44-48.22-12.26-10.56-22.57-19.52-31.44-27.12-7.71-6.61-14.51-12.34-20.47-17.41-5.27-4.48-10-8.51-14.26-12.12h-1.15c4.26,3.61,8.86,7.64,14.06,12.12,5.87,5.07,12.54,10.81,20.16,17.41,8.81,7.62,18.91,16.56,31,27.11,14.64,12.8,32.42,28.49,54.62,48.23Z"/><path class="cls-2" d="M824.28,453.19c-33.34-19.71-59.85-35.41-81.63-48.17-18-10.57-33.27-19.5-46.3-27.11-11.27-6.59-21.14-12.34-29.88-17.41-7.74-4.49-14.67-8.51-20.86-12.12h-1.09l20.66,12.12c8.65,5.07,18.42,10.82,29.59,17.41,12.91,7.61,28,16.54,45.86,27.1,21.57,12.77,47.83,28.47,80.85,48.18Z"/><path class="cls-2" d="M918.49,453.19c-44-19.69-79.15-35.4-107.85-48.15-23.79-10.57-43.92-19.46-61-27.07-14.88-6.6-27.9-12.34-39.37-17.41-10.19-4.5-19.34-8.51-27.46-12.12h-1.09l27.26,12.12c11.39,5.06,24.31,10.81,39.08,17.41,17,7.61,37,16.5,60.61,27.07,28.5,12.75,63.37,28.46,107.2,48.15Z"/><path class="cls-2" d="M1012.43,453.19c-54.79-19.67-98.38-35.35-134.06-48.1C848.81,394.53,823.9,385.64,802.6,378c-18.41-6.58-34.56-12.33-48.8-17.4-12.59-4.49-23.83-8.52-34-12.12h-1.1c10.15,3.6,21.31,7.63,33.84,12.12L801,378c21.25,7.63,46,16.52,75.33,27.07,35.46,12.76,78.81,28.43,133.28,48.1Z"/><path class="cls-2" d="M1066.2,441.19c-47.28-14.18-86.71-26-120.2-36l-90.39-27.07-58.24-17.4c-15-4.49-28.42-8.51-40.56-12.12h-1.15c12.08,3.61,25.37,7.63,40.35,12.12,16.93,5.07,36,10.82,58,17.4,25.3,7.61,54.87,16.52,89.93,27.05,34,10.24,74.08,22.34,122.31,36.88Z"/><path class="cls-2" d="M1066.2,418.67l-52.38-13.48-105.12-27-67.62-17.4c-17.44-4.49-33.09-8.53-47.17-12.13h-1.2c14,3.61,29.6,7.64,46.95,12.13L907,378.14l104.64,27.05,54.59,14.11Z"/><path class="cls-2" d="M271.57,347.9l131.09.2,130.83.2,130.25.19,129.86.2-.61-.15-129.54-.19-130-.2L402.94,348l-130.79-.2Z"/><path class="cls-2" d="M250.28,353.43l142,.21,141.58.22q70.57.11,140.94.21l140.47.2c-.25-.06-.48-.11-.71-.18l-140.12-.2-140.59-.22-141.23-.21L251,353.25Z"/><path class="cls-2" d="M225.05,360l154.94.22,154.38.21,153.48.22,153,.22-.86-.22-152.54-.22-153.06-.21q-77-.11-153.95-.21l-154.52-.22Z"/><path class="cls-2" d="M194.79,367.88l170.48.21q84.9.09,169.66.22l168.48.21,167.89.21-1-.26-167.39-.21-168-.21-169.15-.23-169.94-.21Z"/><path class="cls-2" d="M157.86,377.49l189.39.21,188.34.2,186.84.21,186,.2-1.22-.31-185.41-.21-186.3-.2-187.73-.21-188.71-.21Z"/><path class="cls-2" d="M111.78,389.49l212.9.18,211.59.18L746,390l208.64.18-1.52-.39-207.83-.19q-104.24-.11-209-.18l-210.81-.19-212.11-.19Z"/><path class="cls-2" d="M52.67,404.87l243.11.13,241.37.16c79.73,0,159.54.07,239,.13s158.43.1,237.51.14l-2-.51-236.53-.15-238-.13-240.35-.16-242.09-.14Z"/><path class="cls-2" d="M0,425.29l257.45.07q140.64.06,280.7.07,139.07,0,277.64.08l250.41.08v-.67l-251.61-.09q-137.9,0-276.46-.06l-279.38-.1L0,424.6Z"/><path class="cls-2" d="M0,453.7H1066.2v-1H0Z"/><rect class="cls-3" x="174.1" y="56.79" width="718" height="340.13"/><rect class="cls-4" x="415.14" y="123.53" width="236.24" height="64.34"/><rect class="cls-3" x="421.94" y="130.34" width="222.63" height="50.73"/><rect class="cls-4" x="498.28" y="147.93" width="19.47" height="30.49"/><rect class="cls-3" x="500.8" y="158.22" width="14.43" height="9.91"/><rect class="cls-4" x="524.61" y="147.93" width="14.88" height="30.49"/><rect class="cls-3" x="526.39" y="157.62" width="11.31" height="11.11"/><rect class="cls-4" x="548.64" y="147.93" width="14.88" height="30.49"/><rect class="cls-3" x="550.42" y="157.61" width="11.31" height="11.11"/><rect class="cls-4" x="578.28" y="147.93" width="14.88" height="30.49"/><rect class="cls-3" x="580.06" y="157.62" width="11.31" height="11.11"/><rect class="cls-4" x="602.31" y="147.93" width="14.88" height="30.49"/><rect class="cls-3" x="604.09" y="157.62" width="11.31" height="11.11"/><rect class="cls-4" x="626.34" y="147.93" width="14.88" height="30.49"/><rect class="cls-3" x="628.12" y="157.62" width="11.31" height="11.11"/><rect class="cls-4" x="425.3" y="147.93" width="14.88" height="30.49"/><rect class="cls-3" x="427.08" y="157.62" width="11.31" height="11.11"/><rect class="cls-4" x="473.36" y="147.93" width="14.88" height="30.49"/><rect class="cls-3" x="475.15" y="157.62" width="11.31" height="11.11"/><rect class="cls-4" x="449.33" y="147.93" width="14.88" height="30.49"/><rect class="cls-3" x="451.12" y="157.61" width="11.31" height="11.11"/><rect class="cls-4" x="428.81" y="143.5" width="7.86" height="4.63" rx="1.41" ry="1.41"/><rect class="cls-4" x="504.08" y="143.5" width="7.86" height="4.63" rx="1.41" ry="1.41"/><rect class="cls-4" x="415.14" y="198.44" width="236.24" height="64.34"/><rect class="cls-3" x="421.94" y="205.24" width="222.63" height="50.73"/><rect class="cls-4" x="548.77" y="222.83" width="19.47" height="30.49"/><rect class="cls-3" x="551.29" y="233.12" width="14.43" height="9.91"/><rect class="cls-4" x="527.03" y="222.83" width="14.88" height="30.49"/><rect class="cls-3" x="528.82" y="232.52" width="11.31" height="11.11"/><rect class="cls-4" x="503" y="222.83" width="14.88" height="30.49"/><rect class="cls-3" x="504.79" y="232.52" width="11.31" height="11.11"/><rect class="cls-4" x="473.36" y="222.83" width="14.88" height="30.49"/><rect class="cls-3" x="475.15" y="232.52" width="11.31" height="11.11"/><rect class="cls-4" x="449.33" y="222.83" width="14.88" height="30.49"/><rect class="cls-3" x="451.12" y="232.52" width="11.31" height="11.11"/><rect class="cls-4" x="425.3" y="222.83" width="14.88" height="30.49"/><rect class="cls-3" x="427.08" y="232.52" width="11.31" height="11.11"/><rect class="cls-4" x="626.34" y="222.83" width="14.88" height="30.49"/><rect class="cls-3" x="628.12" y="232.52" width="11.31" height="11.11"/><rect class="cls-4" x="578.28" y="222.83" width="14.88" height="30.49"/><rect class="cls-3" x="580.06" y="232.52" width="11.31" height="11.11"/><rect class="cls-4" x="602.31" y="222.83" width="14.88" height="30.49"/><rect class="cls-3" x="604.09" y="232.52" width="11.31" height="11.11"/><rect class="cls-4" x="629.85" y="218.41" width="7.86" height="4.63" rx="1.41" ry="1.41"/><rect class="cls-4" x="554.57" y="218.41" width="7.86" height="4.63" rx="1.41" ry="1.41"/><rect class="cls-5" x="291" y="234.69" width="9.14" height="16.51" rx="2.54" ry="2.54"/><path class="cls-6" d="M300.14,243.18v5.48a2.54,2.54,0,0,1-2.54,2.54h-4.07a2.54,2.54,0,0,1-2.53-2.54V243.1C296.13,244.9,297.49,240.9,300.14,243.18Z"/><path class="cls-7" d="M293.83,284.11c-3.49,12.45-4.75,28.85-6.06,46-1,13.55-2.12,27.6-4.36,40.64-4.84,28.16-6.9,28-37,26-8.07-.54-41.25-1.95-54-2.23l0-1.43c12.84.28,46,1.68,54.07,2.23,28.89,1.93,30.87,2.06,35.49-24.82,2.22-13,3.3-27,4.34-40.5,1.32-17.27,2.58-33.73,6.11-46.33Z"/><path class="cls-8" d="M286.17,273.47l-33.25-1c-7.76-.84-7.06,11.51-2.83,12.37l36-4Z"/><path class="cls-9" d="M304.56,268.13c-.23,0-.21.23,0,.23h.64c.24,0,.21-.23,0-.23h-.64Zm18.06,2.2c.22,0,.27-.2.07-.22h-.26l-.08,0h-.29c-.22,0-.26.2-.06.23h.51l.07,0Zm-1.57-.24c.22,0,.27-.2.07-.22h0l-.08,0h-.54c-.22,0-.27.2-.07.23h.63Zm-1.57-.23c.21,0,.26-.2.06-.22h-.63c-.21,0-.27.2-.06.22h.63Zm-1.58-.22c.21,0,.27-.2.06-.22h-.63c-.21,0-.27.2-.06.23h.63Zm-1.58-.21c.21,0,.27-.2.06-.22h-.64c-.2,0-.26.2-.05.23h.63Zm-1.58-.19c.2,0,.27-.2.05-.23h-.63c-.2,0-.27.2-.05.23h.63Zm-1.59-.18c.2,0,.27-.2.05-.23h-.64c-.19,0-.26.2,0,.23h.63Zm-1.59-.17c.2,0,.27-.2.05-.23H311c-.19,0-.27.2,0,.23h.63Zm-1.59-.15c.19,0,.27-.2,0-.23h-.64c-.18,0-.27.19,0,.23H310Zm-1.59-.13c.18,0,.27-.2,0-.23h-.64c-.22,0-.24.2,0,.23h.64Zm-1.6-.12c.24,0,.21-.22,0-.23h-.64c-.24,0-.21.23,0,.23h.64Z"/><path class="cls-9" d="M304.43,269.34c-.19,0-.27.2,0,.23H305c.19,0,.27-.2,0-.23h-.64Zm17.88,2.86c.21,0,.29-.17.09-.22h0l-.07,0h-.15l-.07,0H322l-.07,0h-.15c-.21,0-.28.17-.08.22h.07l.07,0H322l.07,0h.07l.08,0h.11Zm-1.55-.3c.24,0,.26-.2.08-.22h0l-.07,0h-.15l-.07,0h-.14l-.08,0h-.1c-.24,0-.26.2-.08.23h0l.07,0h.15l.07,0h.14l.08,0h.08Zm-1.56-.28c.24,0,.26-.2.08-.23h0l-.07,0H319l-.07,0h-.22l-.07,0h0c-.24,0-.26.2-.08.22h.16l.08,0H319l.07,0h.1Zm-1.56-.28c.23,0,.27-.2.08-.23h0l-.08,0h-.28l-.07,0h-.17c-.23,0-.26.2-.07.23h0l.07,0h.29l.07,0h.17Zm-1.56-.27c.23,0,.26-.2.07-.22h-.24l-.07,0h-.31c-.23,0-.27.2-.07.23h.1l.07,0H316l.07,0Zm-1.57-.25c.23,0,.27-.2.07-.23h-.23l-.07,0H314c-.22,0-.26.2-.06.23h.62Zm-1.57-.24c.22,0,.27-.2.07-.23h-.63c-.22,0-.27.2-.07.23h.33l.07,0h.23Zm-1.57-.22c.21,0,.26-.2.06-.23h-.63c-.21,0-.27.2-.06.23h.63Zm-1.58-.21c.2,0,.27-.2,0-.23h-.63c-.2,0-.27.2,0,.23h.63ZM308.2,270c.2,0,.27-.2.06-.23h-.64c-.2,0-.27.2-.05.23h.63Zm-1.58-.17c.19,0,.27-.2,0-.23H306c-.2,0-.27.2,0,.23h.64Z"/><path class="cls-9" d="M304.56,270.62c-.21,0-.27.2-.06.23h.64c.2,0,.26-.2.05-.23h-.63Zm17.7,3.39c.18.05.31-.16.09-.22h-.11l-.07,0-.08,0H322l-.07,0h-.07l-.07,0-.07,0c-.18,0-.31.17-.1.22l.07,0,.07,0h.07l.08,0H322l.07,0,.07,0h.12Zm-1.54-.34c.18.05.31-.16.1-.22h0l-.07,0h-.07l-.07,0-.07,0h-.07l-.07,0h-.07l-.07,0h0c-.18,0-.31.17-.09.23h0l.07,0h.07l.07,0,.08,0h.07l.07,0h.07l.07,0Zm-1.54-.33c.18,0,.32-.17.1-.23h0l-.07,0h-.07l-.07,0H319l-.07,0h-.07l-.07,0h-.09c-.18,0-.31.17-.09.22h.09l.07,0h.07l.07,0h.07l.07,0h.07l.07,0Zm-1.54-.33c.18.05.32-.16.09-.22h-.1l-.07,0h-.07l-.07,0h-.14l-.07,0h-.1c-.17,0-.31.17-.09.22h.1l.07,0h.07l.07,0h.07l.07,0h.17Zm-1.54-.31c.17,0,.31-.17.08-.23h-.1l-.07,0h-.07l-.07,0h-.14l-.07,0h-.1c-.17,0-.31.17-.08.23h0l.07,0h.14l.07,0h.14l.07,0h.1Zm-1.55-.3c.21,0,.28-.17.08-.23h-.09l-.07,0h-.14l-.07,0h-.14l-.07,0H314c-.23,0-.26.2-.08.22h.19l.07,0h.14l.07,0h.16Zm-1.56-.29c.23,0,.26-.2.08-.22h-.23l-.07,0h-.21l-.08,0h0c-.23,0-.26.2-.07.22h.25l.07,0h.21l.08,0Zm-1.56-.27c.23,0,.26-.2.07-.23h-.23l-.08,0H311l-.08,0h0c-.23,0-.27.2-.08.23H311l.07,0h.29l.07,0Zm-1.57-.25c.23,0,.27-.21.07-.23h-.34l-.07,0h-.22c-.22,0-.26.2-.06.23h.43l.07,0h.12Zm-1.57-.24c.22,0,.27-.2.07-.23h-.1l-.08,0h-.45c-.22,0-.27.2-.07.23h.63Zm-1.57-.22c.21,0,.26-.2.06-.23h-.64c-.2,0-.26.19-.05.22h.63Z"/><path class="cls-9" d="M304.4,271.93c-.21,0-.27.2-.06.23H305c.21,0,.27-.2.06-.23h-.63ZM322,275.48c.18,0,.31-.16.1-.22h0l-.07,0-.08,0h-.07l-.07,0-.07,0h-.07l-.07,0-.08,0h0c-.18-.05-.31.17-.1.22h0l.08,0,.07,0h.07l.07,0,.07,0h.07l.08,0,.07,0Zm-1.53-.35c.18.05.31-.17.1-.22l-.08,0-.07,0h-.07l-.07,0h-.07l-.07,0h-.07l-.07,0H320c-.18,0-.31.16-.1.22H320l.07,0,.07,0h.07l.08,0,.06,0h.08l.07,0Zm-1.54-.35c.19.05.32-.16.1-.22H319l-.07,0h-.07l-.07,0h-.07l-.07,0h-.07l-.07,0h0c-.19,0-.32.17-.1.22h0l.07,0h.07l.07,0h.07l.07,0h.07l.07,0,.07,0Zm-1.53-.34c.18.05.31-.16.09-.22h-.09l-.07,0h-.07l-.07,0h-.07l-.07,0H317l-.07,0h0c-.18,0-.32.16-.1.22h.1l.07,0h.07l.07,0h.07l.07,0h.07l.07,0Zm-1.54-.33c.17.05.31-.16.09-.22h0l-.07,0h-.07l-.07,0h-.14l-.07,0h-.07l-.07,0h0c-.17,0-.31.17-.09.23h0l.07,0h.07l.07,0h.07l.07,0h.07l.07,0h.09Zm-1.55-.31c.17,0,.32-.16.09-.22h-.16l-.07,0h-.07l-.07,0h-.14l-.07,0h0c-.17,0-.32.17-.09.23h.19l.07,0h.14l.07,0h.07l.07,0Zm-1.55-.3c.21,0,.29-.17.08-.22h-.15l-.07,0h-.14l-.07,0h-.19c-.23,0-.26.2-.08.22h.12l.07,0h.14l.07,0h.14l.07,0Zm-1.55-.29c.23,0,.26-.19.08-.22h0l-.07,0H311l-.08,0h-.24c-.23,0-.26.2-.08.22h.18l.07,0H311l.07,0h.17Zm-1.56-.26c.22,0,.26-.2.07-.23h-.27l-.07,0h-.29c-.22,0-.26.2-.07.22h.07l.07,0h.29l.07,0h.13Zm-1.57-.26c.22,0,.26-.2.07-.22h-.48l-.07,0h-.08c-.22,0-.27.2-.07.23h.31l.07,0h.25Zm-1.57-.23c.21,0,.26-.2.06-.23h-.19l-.07,0H306c-.21,0-.27.2-.06.23h.63Z"/><path class="cls-9" d="M303.84,273.1c-.22,0-.26.2-.06.23h.31l.08,0h.23c.22,0,.27-.2.07-.22h0l-.08,0h-.31l-.08,0h-.16Zm17.5,3.9c.2.05.31-.17.11-.22h-.06l-.07,0-.07,0-.07,0h-.08l-.07,0-.07,0-.07,0h-.05c-.2-.05-.31.16-.11.22h0l.07,0,.07,0H321l.07,0,.07,0,.07,0,.07,0Zm-1.52-.38c.2.05.31-.17.11-.22h0l-.07,0-.07,0h-.08l-.07,0-.07,0-.07,0h-.07l-.07,0h0c-.19-.05-.31.16-.1.21h.08l.07,0,.07,0,.07,0h.07l.07,0,.07,0,.07,0Zm-1.51-.38c.19.05.31-.17.1-.22l-.06,0h-.07l-.07,0-.07,0h-.07l-.07,0-.07,0h-.07l-.06,0c-.19-.05-.31.16-.1.22h.06l.07,0,.07,0H318l.07,0,.07,0,.07,0h.07l.06,0Zm-1.53-.37c.19.05.31-.17.1-.22h0l-.07,0h-.06l-.07,0-.07,0h-.07l-.07,0-.07,0h-.13c-.18-.05-.31.16-.1.21l.06,0h.07l.07,0,.07,0h.06l.07,0,.07,0h.07l.07,0Zm-1.52-.36c.18.05.31-.16.09-.22h0l-.07,0h-.07l-.07,0h-.07l-.07,0h-.07l-.06,0-.07,0h-.06c-.18,0-.31.17-.1.22h.06l.07,0,.07,0h.07l.07,0h.07l.07,0,.07,0Zm-1.54-.34c.18,0,.32-.17.1-.22l-.07,0-.07,0h-.07l-.07,0h-.07l-.07,0h-.07l-.07,0h-.06c-.18-.05-.31.17-.09.22l.06,0h.07l.07,0h.07l.07,0h.07l.06,0h.08l.06,0Zm-1.53-.33c.17,0,.31-.17.09-.23h-.08l-.07,0h-.07l-.07,0h-.14l-.07,0h-.12c-.18-.05-.32.16-.09.22h.12l.07,0h.07l.07,0H312l.08,0h.07l.07,0Zm-1.55-.32c.17,0,.32-.16.09-.22h0l-.07,0h-.07l-.07,0h-.07l-.07,0h-.15l-.07,0h0c-.17,0-.32.17-.09.23h.18l.07,0h.07l.07,0h.15l.07,0Zm-1.55-.3c.24,0,.26-.2.08-.22h-.11l-.08,0h-.07l-.07,0h-.15l-.07,0h-.07c-.24,0-.26.2-.08.23h.22l.07,0h.14l.08,0h.11Zm-1.56-.28c.24,0,.27-.2.08-.23h-.1l-.07,0h-.15l-.07,0H307c-.23,0-.27.2-.08.23H307l.08,0h.22l.07,0h.17Zm-1.56-.27c.23,0,.27-.2.07-.22h-.11l-.07,0h-.31l-.07,0h-.06c-.23,0-.27.2-.07.23h.21l.07,0h.23l.08,0Z"/><polygon class="cls-8" points="276.16 274.54 286.57 273.44 289.18 280.71 278.77 281.81 276.16 274.54"/><path class="cls-9" d="M291.64,272.2l-5.4,2.07-.14-.8-4.8-.14.94,8.33,3.86-.43.1.21c.09.19,7.84,2.14,8.39,1.66l1.09-1c1.89-1.91,4.11-4.29,4.13-4.84L293.34,273C292.73,272.6,292.32,271.94,291.64,272.2Z"/><path class="cls-10" d="M289,276.89c.72,1.75-.07,5,.67,5.32,2.16.6,4.58,1.15,4.88.89l1.09-1c1.89-1.91,4.11-4.29,4.13-4.84l-4.76-3C294.44,273.91,288.77,276.22,289,276.89Z"/><path class="cls-7" d="M303.91,267.77l-7,1.12-.28,2.77,6.72,1.83C305.48,272.89,305.92,269,303.91,267.77Z"/><rect class="cls-11" x="290.77" y="269.65" width="9.48" height="6.8" rx="1.35" ry="1.35" transform="translate(-6.01 539.45) rotate(-84.2)"/><path class="cls-7" d="M293.87,274.43l1.14.21a1.5,1.5,0,0,1,1.23,1.73l-1.7,9.9a1.48,1.48,0,0,1-1.73,1.19l-1.15-.21a1.51,1.51,0,0,1-1.22-1.73l1.7-9.9A1.46,1.46,0,0,1,293.87,274.43Z"/><path class="cls-12" d="M280.48,272.8l-27.56-.31c-7.76-.84-7.06,11.51-2.83,12.37l31.31-2.48Z"/><path class="cls-9" d="M296,277.65h0a1,1,0,0,0,.1,1.46l1,.83a1.05,1.05,0,0,0,1.51.13h0a1.07,1.07,0,0,0-.11-1.56l-1-.84A1,1,0,0,0,296,277.65Z"/><path class="cls-9" d="M293.68,281.19h0a.88.88,0,0,0,0,1.27l.75.66a.93.93,0,0,0,1.27,0h0a.88.88,0,0,0,0-1.26l-.76-.66A.91.91,0,0,0,293.68,281.19Z"/><path class="cls-9" d="M297.35,276h0a.94.94,0,0,0,.09,1.45l1,.84a1.08,1.08,0,0,0,1.52.14h0a1.09,1.09,0,0,0-.11-1.57l-1-.84A1,1,0,0,0,297.35,276Z"/><path class="cls-9" d="M294.54,279.25h0a1,1,0,0,0,.1,1.45l1,.84c.47.41,1.08.58,1.52.13h0a1.08,1.08,0,0,0-.12-1.56l-1-.84A1,1,0,0,0,294.54,279.25Z"/><path class="cls-9" d="M289.33,271a1.13,1.13,0,0,0-.56.25l-3.1,2.46.73,3.94c1.79-1.61,4.87-1.77,6.69-3.09,1.24,1.87,1.66,3,2.71,2.57a1.08,1.08,0,0,0,.49-1.44l-1.54-3.16h0a.77.77,0,0,0-.5-.43L290,271.05A1.92,1.92,0,0,0,289.33,271Z"/><path class="cls-12" d="M257.1,262.72c.95,6.15,1.91,16.56-1.46,20.89-1.24,1.19-8.33,2.52-8.81-8.83.3-1,.88-.71-4.14-14.19-4.55-12.2-5.81-18.8,3.1-19.53C256.61,240.37,256.74,257.56,257.1,262.72Z"/><path class="cls-12" d="M255.39,410c-4.59,2.79-11.87.47-16.47,0-1.56,1-4.06.32-5,.13-2.1-.43-1.67-5.55-1.06-8.64.49-2.48,0-4.42,0-7.15l8.74-2.23c-.4,4.49-.85,6.05.29,8,2.35,3.94,7.46,4.23,10.87,4.36C258.09,404.68,258.44,408.15,255.39,410Z"/><path class="cls-13" d="M225.73,319.8c-1.63-6.52-2-9-1.25-13.28,1-5.35,2.74-8.59,5.16-13.28l17.71,3.8,1.75,15.59-4,33.74-1.79,53.89-12.12,1.27-2.61-37.95L232,346.07C231.22,337.14,227.55,327.07,225.73,319.8Z"/><path class="cls-13" d="M244.55,410.54c-4.59,2.67-11.87.18-16.47-.36-1.56,1-4.06.22-5,0-2.1-.47-1.68-5.58-1.07-8.66.49-2.47,0-4.41,0-7.15l8.74-2c-.4,4.47-.85,6,.29,8,2.35,4,7.46,4.39,10.87,4.61C247.25,405.28,247.59,408.76,244.55,410.54Z"/><path class="cls-14" d="M219.62,320.61c-3-14.09,2.67-16.89,4.08-27.37l18.09,4.85.56,15.43-1.95,5.82-3,26.57-.2,1.56-4.47,54.3L220.55,403l-.76-39.45,2.05-18C221.4,336.67,221.16,327.88,219.62,320.61Z"/><path class="cls-14" d="M230.3,235.21c-.86.7-2,1-4.12,2-6.27,2.82-7.85,1.86-9.62,4.94-3.93,6.88,4,31.82,6.94,51.95,6.17,7.41,22.93,6.11,24.07,5.68,2.64-14.54,5.93-21.49,6.61-33.32a76.24,76.24,0,0,0-.5-16.08c-.84-5-.85-7.26-4.83-10a17.45,17.45,0,0,1-4.56-4.5C244.45,245.61,231.7,233.23,230.3,235.21Z"/><path class="cls-15" d="M230.56,235.16c1.79,1.73,11.11,7.55,13.84,4.4-.21-3.27-.09-4.14,2.45-8.84l-6.53-12.41L233,215c-1.38,6.21,1.5,11.77.26,16.76A7.17,7.17,0,0,1,230.56,235.16Z"/><path class="cls-8" d="M214.93,262.37c.25,6.22,1.2,17.54,6.57,21,1.44.93,8.65.88,6.95-10.35-.49-.95-1-.54,1.35-14.73,2.12-12.84,2.09-19.56-6.8-18.57C212.25,241.16,214.72,257.3,214.93,262.37Z"/><path class="cls-8" d="M216.71,277.22C218.27,288,224,296.65,227,307.39c3.38-.86,3.95-1.2,5.75-1.1,0,0-2.74-21.05-3.4-30.33C228.86,269.12,215.78,269.86,216.71,277.22Z"/><path class="cls-9" d="M237.9,314a4.74,4.74,0,0,1,.47,3c0,1.16.11,2.86.1,3.05s-1.28,2.74-1.28,2.74c-1.58,1.25-2.18,2.14-2.92,1.45-.45-.42,0-1.25,1.2-2.88l.34-1a4.36,4.36,0,0,1-1.66,1.89,1.56,1.56,0,0,1-2.34-.78c-.14-.31.15-.38.44-.61l.79-.59c0-1.12.06-2.12.13-3.24a8.39,8.39,0,0,1-.72,3c-.46.71-1.15.41-1.82.1-.94-.42.08-1.73.07-4a5.21,5.21,0,0,1-.72,2.56c-.53.6-1.15-.11-1.37-.71a39.69,39.69,0,0,1-2-8.19c-.11-1.06.07-1.92-.08-2.6-.47-1.63-1.38-3.87-1.95-5.46l8.11-2.28.84,6.83A74.7,74.7,0,0,1,237.9,314Z"/><path class="cls-8" d="M253.57,228.29a1.25,1.25,0,0,0,.33,1.53,1.06,1.06,0,0,1-.86,1c-2-.47-1.44,1-1.29,1,1.45.37,1.18.88.86,1.31-.43,0-.63.17-.71.37-.23.62.75,2.07-.32,3-1.3,1.17-6.89-2.51-9.5-4.21-2.16-1.41-1.21-2.9-.65-5.35-1.33,0-2.3-.5-2.1-2.56-1.42-2.62-1.75-4.65-2.5-7.52,0,0,5.62-10.37,5.9-10.41s8.63,2.12,8.63,2.12c.82,1.77,2.3,3.48,3.13,5.52a17.08,17.08,0,0,1,1.19,5.73,2.7,2.7,0,0,1-.36,2.1,2.24,2.24,0,0,0-.39.77c-.27,2.09,1.53,4.16,1.34,4.73A2.36,2.36,0,0,1,253.57,228.29Z"/><path class="cls-16" d="M245.94,221a22.71,22.71,0,0,1-.68,2.33c-.15.67-.24,1-.54,1.24a8.63,8.63,0,0,1-1.61-2.76c-.93-1.38-2.26-2.91-3.52-2.68s-1.18,2.68-.5,4.48a2.92,2.92,0,0,1-.09,2.44c-.73,1.22-1.84.38-3.31,1.44-1.19.86-1.85,2.42-2.45,3.06a18.47,18.47,0,0,0-1.42-6.91c-1.24-3.1-1-9,1.24-11.85l-.23.16c1.82-2.22,2.33-3.09,5.11-4.07,2-2.39,5.18-3.08,8.21-2.61a9.15,9.15,0,0,0-3,.54c10.65-.56,12,7.71,15.07,7.32-2.7,3.56-5.44,2.85-9,1.64a8,8,0,0,0-2.69,6.91l-.59-.86Z"/><path class="cls-17" d="M214.93,262.37c.14,3.55-.3,8.76,1,13.23a5.46,5.46,0,0,0,0,1.62c1.22,8.44,5,15.63,8.24,23.46l8.1-2.07c-.58-7-1.54-17-2-22.65a4.56,4.56,0,0,0-.81-2.35c0-.18,0-.36-.08-.55-.49-.95-1.34-.54,1-14.73,2.12-12.84.94-20.44-7.95-19.45C211.71,240.28,214.72,257.3,214.93,262.37Z"/><path class="cls-13" d="M242.16,300.13a26.62,26.62,0,0,0,5.41-.36c2.64-14.54,5.93-21.49,6.61-33.32.35-6.12.63-11.8-.1-16.08-.84-5-1.25-7.26-5.23-10a17.45,17.45,0,0,1-4.56-4.5,12.14,12.14,0,0,1-.1,1.68c1.06,9.84,1.88,19.23,1.61,27.16C245.06,286.86,242.71,292.73,242.16,300.13Z"/><path class="cls-18" d="M251.86,228.34a31.84,31.84,0,0,1-4.74-1.46,28.19,28.19,0,0,1-4.3-2.5l1.38-2.14a27.71,27.71,0,0,0,3.93,2.3,30.5,30.5,0,0,0,4.37,1.33Z"/><path class="cls-18" d="M249.35,234.7a32.45,32.45,0,0,1-4.74-1.45,30.13,30.13,0,0,1-4.3-2.5l1.39-2.14a27.74,27.74,0,0,0,3.92,2.3,31.21,31.21,0,0,0,4.37,1.32Z"/><path class="cls-14" d="M245.41,238.21l-.82,5.82-13.13-1.89-3.79-5.22c2.55-2.33,4.52-3.48,4.38-7.92-.12-4.15-1.61-6.05-1.83-9.21-.5-7.27,1-13.74,10.48-16.12,5.54-1.4,9.64,1.58,13.94,4.72,4,2.89,4.8,6.86,1.76,7.9C251.87,217.84,238.74,221.11,245.41,238.21Z"/><path class="cls-18" d="M248,235.18c1.72,3.27,6.82,2.33,7.49,1,.42-.85,1-5.53.89-8.6C256.11,219,245.4,230.24,248,235.18Z"/><path class="cls-9" d="M650.33,295.07C624.2,282.48,600,269.23,569,256.77c-7.9-3.18-12.48-4.64-17.07-5.31-20.91-3.06-93.63-4.4-115.63-2.21-3.09.3-10.39,2.21-14.88,3.44-30.35,8.33-63,18.21-90.11,30.67-15.8-1.06-25.45,1.25-31,8a26.42,26.42,0,0,0-5,10.82c-1.55,6.51-3.16,47.82-1.05,53.08,4.17,10.43,23.91,21.14,42.19,25.93l379.11.11,30.86-.49c10.47-.17,8.53-8.57,8.17-13.2-.91-11.86-2.13-23.06-4-31.11-3.81-16.38-27.06-26.45-44.18-30Z"/><path class="cls-19" d="M636.41,306.42c10.19-6.25-71.53-49.07-102.81-49.07l-74.33-3.1c-17.73.79-45.66,7-67.12,15.33-7.6,2.95-6.27,1.74-3.49,9.57,2.46,7.49,3.27,7.26,14.68,7.89,40,2.22,73.57,5.88,124.18,9.6C567.94,299.61,603.55,305,636.41,306.42Z"/><polygon class="cls-9" points="511.89 251.95 493.87 252.12 495.48 311.13 513.5 310.96 511.89 251.95"/><path class="cls-10" d="M296.17,299.17c-.32,1-.59,1.95-.84,3-1.55,6.51-3.16,47.82-1.05,53.08,4.17,10.43,23.91,21.14,42.19,25.93l379.11.11,30.86-.49c10.47-.17,8.53-8.57,8.17-13.2-.91-11.86-2.13-23.06-4-31.11a26.32,26.32,0,0,0-7.75-12.81Z"/><path class="cls-20" d="M673.08,334.43c-21.08.42-40.42,19-37.74,46.81l80.24,0h0C718.63,349.28,694.42,334,673.08,334.43Z"/><path class="cls-21" d="M674.9,338.8A36.48,36.48,0,1,0,712,374.69,36.47,36.47,0,0,0,674.9,338.8Z"/><path class="cls-21" d="M675.08,350.53a24.74,24.74,0,1,0,25.13,24.35A24.74,24.74,0,0,0,675.08,350.53Z"/><path class="cls-22" d="M675.07,349.5a25.77,25.77,0,1,0,26.17,25.36,25.77,25.77,0,0,0-26.17-25.36Zm.28,17.9a1.14,1.14,0,0,1,1.16,1.12,1.12,1.12,0,0,1-1.12,1.15,1.14,1.14,0,1,1,0-2.27Zm.25,15.75a1.14,1.14,0,1,1,1.12-1.16,1.14,1.14,0,0,1-1.12,1.16Zm-8-7.75a1.14,1.14,0,1,1,1.16,1.12,1.14,1.14,0,0,1-1.16-1.12Zm15.75-.25a1.14,1.14,0,1,1-1.16-1.12,1.13,1.13,0,0,1,1.16,1.12ZM666.8,359.54,665.73,358l-.36-.51c-.47-1,4.59-3.24,9.68-3.31s10.1,2,10,3l-1.37,2.09c-4.92,7.53-11.72,7.64-16.87.26Zm-8.95,19.15-1.79.55-.6.18c-1.12.13-1.67-5.36-.17-10.23s5-9,5.92-8.58l1.57,1.94c5.66,7,3.67,13.5-4.93,16.14Zm15.61,14.42v2.49c-.22,1.11-5.62,0-9.81-2.89s-7.1-7.47-6.42-8.22l2.32-.92c8.37-3.3,14,.54,13.92,9.54Zm18.18-9.91,1.76.63.59.21c1,.58-1.88,5.3-6,8.3s-9.4,4.22-9.88,3.32l-.1-2.49c-.34-9,5.15-13,13.62-10Zm-3.87-21,1.12-1.49.38-.5c.84-.76,4.49,3.38,6.13,8.2s1.21,10.22.21,10.42l-2.4-.66C684.53,375.83,682.33,369.39,687.77,362.22Z"/><path class="cls-23" d="M675.41,371a4.24,4.24,0,1,0,4.3,4.16A4.23,4.23,0,0,0,675.41,371Z"/><path class="cls-24" d="M675.43,372.14a3.13,3.13,0,1,0,3.18,3.08A3.14,3.14,0,0,0,675.43,372.14Z"/><path class="cls-25" d="M675.44,373.23a2,2,0,1,0,2.08,2A2.06,2.06,0,0,0,675.44,373.23Z"/><path class="cls-20" d="M382.7,331.71c-21.74.43-41.63,20.23-37.42,49.46l79.64,0C429.57,347.4,404.63,331.27,382.7,331.71Z"/><path class="cls-21" d="M384.5,335.87A37.94,37.94,0,1,0,423,373.21,37.94,37.94,0,0,0,384.5,335.87Z"/><path class="cls-21" d="M384.69,348.08a25.73,25.73,0,1,0,26.14,25.32A25.73,25.73,0,0,0,384.69,348.08Z"/><path class="cls-22" d="M384.67,347a26.8,26.8,0,1,0,27.23,26.37A26.79,26.79,0,0,0,384.67,347Zm-8.6,10.44L375,355.86l-.37-.53c-.49-1.07,4.77-3.37,10.07-3.45S395.17,354,395,355l-1.41,2.17c-5.12,7.84-12.2,7.95-17.56.28Zm-9.31,19.92-1.85.56-.62.2c-1.17.13-1.74-5.58-.19-10.64s5.2-9.37,6.16-8.93l1.63,2c5.89,7.27,3.82,14-5.13,16.79Zm16.25,15,0,1.94V395c-.22,1.16-5.84,0-10.2-3s-7.39-7.76-6.68-8.55l2.41-.95c8.71-3.44,14.55.56,14.49,9.92Zm18.9-10.3,1.83.65.61.22c1,.6-2,5.51-6.23,8.63S388.35,396,387.85,395l-.1-2.59c-.36-9.35,5.35-13.53,14.16-10.37Zm-4-21.83,1.17-1.55.4-.51c.87-.79,4.67,3.5,6.37,8.52s1.26,10.64.22,10.84l-2.5-.68C394.51,374.39,392.23,367.69,397.88,360.23Z"/><path class="cls-23" d="M385,369.4a4.41,4.41,0,1,0,4.47,4.34A4.4,4.4,0,0,0,385,369.4Z"/><path class="cls-24" d="M385.05,370.55a3.26,3.26,0,1,0,3.31,3.21A3.26,3.26,0,0,0,385.05,370.55Z"/><path class="cls-25" d="M385.07,371.69a2.12,2.12,0,1,0,2.15,2.09A2.11,2.11,0,0,0,385.07,371.69Z"/><path class="cls-26" d="M309.91,292.11c8.55.21,17.14,0,25.6,1.16,1,.14,1.07,2.25.36,2.93L313.38,318l-8.23-3.84c-6.11-4.35-7.41-4.1-5.25-10.53C301.74,298.12,304.26,292,309.91,292.11Z"/><path class="cls-26" d="M744.88,339.57c2.81-24.3-39.66-29.58-52.37-28.64,5.79,4.11,18.77,18.57,20.65,19.46C722.43,332.79,731.58,331.36,744.88,339.57Z"/><polygon class="cls-27" points="1066.2 3.25 1066.2 450.45 886.65 396.89 886.65 56.83 1066.2 3.25"/><path class="cls-8" d="M749.33,300.08l31.46-.93c7.34-.79,6.67,10.89,2.67,11.7l-34.09-3.75Z"/><path class="cls-9" d="M731.94,295c.22,0,.2.22,0,.22h-.61c-.22,0-.2-.21,0-.22h.61Zm-17.09,2.08c-.21,0-.25-.19-.06-.21h.59c.21,0,.25.19.07.21H715l-.07,0h-.11Zm1.49-.22c-.21,0-.25-.19-.06-.22h.59c.21,0,.25.19.06.22h-.44l-.07,0h-.08Zm1.49-.22c-.2,0-.25-.19-.06-.22h.6c.2,0,.25.19,0,.21h-.59Zm1.49-.21c-.2,0-.25-.19-.06-.21h.6c.2,0,.25.19.06.22h-.6Zm1.49-.2c-.19,0-.25-.19,0-.21h.6c.19,0,.25.19,0,.22h-.6Zm1.5-.18c-.19,0-.25-.19,0-.22h.6c.19,0,.25.19,0,.22h-.6Zm1.5-.17c-.19,0-.25-.19,0-.22h.61c.18,0,.25.19,0,.22h-.6Zm1.5-.16c-.18,0-.25-.19,0-.22h.61c.17,0,.25.19,0,.22h-.61Zm1.51-.14c-.18,0-.26-.19,0-.22h.61c.17,0,.26.19,0,.22h-.6Zm1.51-.13c-.17,0-.26-.19,0-.22h.61c.2,0,.23.19,0,.22h-.6Zm1.51-.11c-.23,0-.2-.21,0-.21h.61c.22,0,.2.21,0,.21h-.61Z"/><path class="cls-9" d="M732.06,296.18c.18,0,.26.18,0,.21h-.6c-.18,0-.26-.19,0-.22h.6Zm-16.91,2.7c-.2,0-.27-.16-.08-.21h.11l.07,0h.13l.07,0h.14l.07,0c.2,0,.27.16.07.22h-.2l-.07,0h-.14l-.07,0h-.1Zm1.47-.28c-.23,0-.25-.19-.08-.21h0l.07,0h.13l.07,0H717l.06,0h0c.22,0,.24.19.07.21h0l-.07,0h-.2l-.07,0h-.14l-.06,0Zm1.47-.27c-.23,0-.25-.19-.08-.22h.1l.07,0h.27l.06,0h.09c.22,0,.25.19.08.21h0l-.07,0h-.27l-.07,0h-.16Zm1.47-.27c-.22,0-.25-.19-.07-.21h0l.07,0h.33l.07,0h.09c.22,0,.25.19.07.21h-.42l-.07,0h-.1Zm1.48-.25c-.21,0-.25-.19-.07-.21h.6c.21,0,.24.19.06.21h-.43l-.07,0H721Zm1.48-.24c-.21,0-.25-.19-.06-.21h.08l.07,0h.44c.21,0,.25.18.07.21h0l-.07,0h-.49Zm1.49-.22c-.21,0-.25-.19-.06-.22h.59c.21,0,.26.18.06.21H724Zm1.49-.22c-.2,0-.25-.18-.06-.21h.6c.2,0,.25.19.06.21h-.6Zm1.49-.19c-.19,0-.25-.19,0-.22h.6c.19,0,.25.19.05.21H727Zm1.5-.18c-.19,0-.25-.19,0-.22h.61c.18,0,.25.18,0,.21h-.6Zm1.5-.16c-.18,0-.25-.19,0-.22h.6c.18,0,.26.19,0,.21H730Z"/><path class="cls-9" d="M731.94,297.38c.19,0,.26.19,0,.22h-.6c-.19,0-.25-.19,0-.22h.6Zm-16.74,3.21c-.17.05-.3-.15-.09-.2h0l.07,0h.07l.06,0h.07l.07,0,.07,0h.13c.17-.05.29.15.09.2l-.06,0h-.07l-.07,0h-.07l-.07,0h-.06l-.07,0-.07,0Zm1.45-.32c-.17,0-.29-.16-.09-.21h0l.07,0h.07l.06,0h.07l.07,0H717l.07,0h0c.18,0,.3.16.09.21h0l-.07,0H717l-.07,0h-.06l-.07,0h-.07l-.07,0Zm1.46-.32c-.17.05-.3-.15-.09-.21h0l.06,0h.14l.06,0h.07l.07,0h.07l.06,0h0c.17,0,.3.16.09.21h0l-.07,0h-.07l-.06,0h-.07l-.07,0h-.13l-.07,0Zm1.45-.3c-.16,0-.29-.16-.08-.21h.1l.07,0h.13l.06,0h.07l.07,0h.08c.17-.05.3.15.09.21h-.09l-.07,0h-.13l-.07,0h-.06l-.07,0h-.1Zm1.47-.3c-.17,0-.3-.16-.09-.21h.23l.07,0h.13l.07,0h.09c.16,0,.3.16.08.21h-.09l-.07,0h-.13l-.07,0H721Zm1.46-.28c-.19,0-.27-.17-.08-.22h.09l.07,0h.26l.07,0h.1c.23,0,.25.19.08.22H723l-.07,0h-.2l-.07,0h-.15Zm1.47-.28c-.22,0-.24-.18-.07-.21H724l.07,0h.27l.06,0h0c.22,0,.25.19.07.21h-.3l-.07,0H724Zm1.48-.25c-.22,0-.25-.19-.07-.21h.29l.07,0H726c.22,0,.25.19.07.21h-.09l-.07,0h-.43Zm1.48-.24c-.21,0-.25-.19-.06-.22H727l.07,0h.34c.21,0,.25.19.06.21h-.13l-.07,0h-.39Zm1.49-.23c-.21,0-.25-.19-.06-.21h.59c.2,0,.26.19.06.22h-.59Zm1.49-.21c-.2,0-.25-.19-.06-.21h.6c.2,0,.25.19.06.21h-.6Z"/><path class="cls-9" d="M732.09,298.62c.2,0,.26.19.06.22h-.6c-.2,0-.25-.19-.06-.22h.6ZM715.41,302c-.18,0-.29-.16-.1-.21h.1l.07,0,.07,0h.06l.07,0h.07l.07,0,.06,0h0c.18,0,.3.16.1.21h0l-.07,0h-.07l-.07,0-.06,0h-.07l-.07,0h-.07l-.07,0Zm1.44-.34c-.17,0-.29-.16-.09-.21h.07l.07,0,.06,0H717l.07,0h.06l.07,0h.11c.18-.05.3.15.09.21h-.11l-.06,0h-.07l-.07,0h-.06l-.07,0h-.07l-.07,0Zm1.45-.33c-.17,0-.29-.16-.09-.21h0l.07,0h.07l.06,0h.07l.06,0h.07l.07,0h.09c.18,0,.3.16.09.21h-.09l-.07,0h-.06l-.07,0h-.07l-.06,0h-.07l-.07,0Zm1.46-.32c-.17,0-.3-.16-.09-.21h.15l.07,0H720l.06,0h.07l.07,0h.09c.17,0,.3.16.09.21h-.1l-.06,0h-.07l-.07,0H720l-.07,0h-.15Zm1.45-.31c-.16,0-.29-.15-.08-.21h0l.06,0h.07l.07,0h.13l.07,0h.16c.17,0,.3.15.09.21h-.17l-.07,0h-.13l-.07,0h-.06l-.07,0Zm1.46-.3c-.16,0-.29-.15-.08-.21h.08l.07,0h.13l.07,0h.13l.07,0h0c.16-.05.3.15.08.21h0l-.07,0H723l-.07,0h-.13l-.07,0h-.08Zm1.47-.28c-.2,0-.27-.16-.08-.21h0l.07,0h.2l.07,0h.14l.06,0h0c.23,0,.25.19.08.21h-.24l-.07,0h-.2l-.07,0Zm1.47-.27c-.22,0-.24-.19-.07-.21h.22l.07,0h.3c.22,0,.25.19.07.22H726l-.07,0h-.27l-.07,0Zm1.48-.26c-.22,0-.25-.18-.07-.21h.46l.07,0h.06c.22,0,.25.19.07.22h-.41l-.07,0h-.11Zm1.48-.23c-.21,0-.25-.19-.06-.22h.38l.07,0h.14c.21,0,.25.19.06.22h-.59Zm1.49-.23c-.2,0-.25-.18-.06-.21h.6c.2,0,.25.19,0,.22h-.59Z"/><path class="cls-9" d="M732.62,299.73c.2,0,.25.19.06.21l-.07,0h-.53c-.2,0-.25-.18-.06-.21h.3l.07,0h.23Zm-16.55,3.69c-.19.05-.29-.16-.1-.21h0l.07,0h.06l.07,0,.07,0,.07,0h.06l.07,0h0c.19-.05.29.15.1.2l0,0h-.06l-.07,0-.07,0h-.07l-.06,0-.07,0-.07,0Zm1.43-.36c-.18,0-.29-.16-.1-.21h0l.07,0h.07l.06,0,.07,0h.06l.07,0,.07,0H718c.18,0,.29.15.09.2h0l-.06,0-.07,0h-.06l-.07,0-.07,0h-.06l-.07,0-.07,0Zm1.44-.36c-.19,0-.3-.16-.1-.21h0l.07,0,.07,0h.06l.07,0h.06l.07,0h.07l.06,0c.17-.05.29.16.09.21h-.06l-.06,0h-.07l-.06,0-.07,0h-.07l-.06,0H719l0,0Zm1.44-.35c-.18,0-.3-.16-.1-.21h.07l.06,0,.07,0h.07l.06,0h.07l.06,0h.12c.18-.05.29.15.09.2l-.05,0h-.06l-.07,0h-.07l-.06,0h-.07l-.06,0h-.07l-.06,0Zm1.44-.34c-.17.05-.29-.15-.09-.21h.06l.07,0h.07l.06,0h.07l.06,0h.07l.07,0h0c.17,0,.29.16.09.21h0l-.07,0h-.06l-.07,0h-.07l-.06,0H722l-.06,0Zm1.45-.32c-.17,0-.29-.16-.09-.21l.07,0h.06l.07,0h.06l.07,0h.07l.06,0h.12c.17,0,.3.15.09.21h-.12l-.07,0h-.06l-.07,0h-.06l-.07,0h-.06l-.07,0Zm1.46-.32c-.17.05-.3-.15-.09-.21h.07l.06,0h.14l.06,0h.14l.07,0h.05c.16,0,.29.16.08.21h0l-.07,0h-.13l-.07,0h-.13l-.07,0Zm1.46-.3c-.17.05-.3-.15-.08-.21h.08l.06,0h.14l.07,0h.13l.07,0h0c.16,0,.3.15.08.21h-.17l-.06,0h-.21l-.06,0h-.08Zm1.46-.28c-.22,0-.24-.19-.07-.21h.17l.07,0H728l.07,0h.14c.22,0,.24.19.07.21h-.07l-.06,0h-.21l-.07,0h-.18Zm1.47-.27c-.21,0-.24-.19-.07-.21h0l.07,0h.29l.07,0h.15c.21,0,.24.19.07.21h-.08l-.07,0h-.28l-.07,0h-.1Zm1.48-.25c-.21,0-.25-.19-.07-.21h.33l.07,0h.2c.21,0,.25.19.06.21h-.05l-.07,0h-.36l-.08,0Z"/><polygon class="cls-8" points="758.8 301.09 748.95 300.06 746.48 306.93 756.33 307.96 758.8 301.09"/><path class="cls-9" d="M744.16,298.88l5.11,1.95.13-.75,4.54-.13-.89,7.87-3.65-.4-.1.2c-.08.18-7.41,2-7.93,1.57l-1-.9c-1.79-1.8-3.89-4.06-3.9-4.58l6.11-4.07C743.13,299.26,743.51,298.64,744.16,298.88Z"/><path class="cls-10" d="M746.62,303.32c-.68,1.65.06,4.75-.63,5-2,.56-4.34,1.09-4.62.84l-1-.9c-1.79-1.8-3.89-4.06-3.9-4.58l4.49-2.84C741.52,300.5,746.88,302.68,746.62,303.32Z"/><path class="cls-7" d="M732.56,294.69l6.64,1.06.27,2.61-6.36,1.74C731.07,299.54,730.65,295.82,732.56,294.69Z"/><rect class="cls-11" x="737.28" y="295.2" width="6.44" height="8.97" rx="1.28" ry="1.28" transform="matrix(0.99, -0.1, 0.1, 0.99, -26.46, 76.23)"/><path class="cls-7" d="M742.05,301l-1.08.2a1.44,1.44,0,0,0-1.16,1.64l1.61,9.37a1.39,1.39,0,0,0,1.63,1.13l1.09-.2a1.44,1.44,0,0,0,1.16-1.64l-1.61-9.37A1.4,1.4,0,0,0,742.05,301Z"/><path class="cls-12" d="M754.71,299.44l26.08-.29c7.34-.79,6.67,10.89,2.67,11.7l-29.61-2.34Z"/><path class="cls-9" d="M740,304h0a.91.91,0,0,1-.09,1.38l-.9.79c-.45.39-1,.55-1.44.13h0a1,1,0,0,1,.11-1.48l.9-.79A1,1,0,0,1,740,304Z"/><path class="cls-9" d="M742.23,307.39h0a.82.82,0,0,1,0,1.19l-.71.63a.87.87,0,0,1-1.2,0h0a.84.84,0,0,1,0-1.2l.72-.62A.85.85,0,0,1,742.23,307.39Z"/><path class="cls-9" d="M738.76,302.44h0a.91.91,0,0,1-.09,1.38l-.91.79a1,1,0,0,1-1.43.13h0a1,1,0,0,1,.11-1.48l.9-.79A1,1,0,0,1,738.76,302.44Z"/><path class="cls-9" d="M741.41,305.55h0a.89.89,0,0,1-.09,1.37l-.9.8c-.45.38-1,.54-1.44.12h0a1,1,0,0,1,.11-1.48l.9-.79A1,1,0,0,1,741.41,305.55Z"/><path class="cls-9" d="M746.34,297.75a1.19,1.19,0,0,1,.54.24l2.93,2.33-.69,3.72c-1.7-1.52-4.61-1.67-6.33-2.92-1.17,1.77-1.57,2.88-2.56,2.43a1,1,0,0,1-.47-1.36l1.46-3h0a.68.68,0,0,1,.47-.4l4-1A1.93,1.93,0,0,1,746.34,297.75Z"/><path class="cls-12" d="M776.83,289.91c-.89,5.82-1.81,15.67,1.39,19.76,2.91,2.82,7.76,1.14,9.72-3.67,2.41-5.94,1.67-15.8,2.53-18.1,4.29-11.54,5.49-17.79-2.94-18.48C777.29,268.77,777.17,285,776.83,289.91Z"/><path class="cls-15" d="M773.84,262,772.37,275l-1.07.25c-6.09-5.16-6.58-6.19-11.84-12.43L766,252.11c1.69,2.38,3,3.15,4.89,5.67A49.77,49.77,0,0,1,773.84,262Z"/><path class="cls-8" d="M753.68,269.33a1.27,1.27,0,0,1,.62,1.46,1.06,1.06,0,0,0,1.3.34c1.39-1.54,1.75,0,1.64.09-1,1.15-.46,1.42.06,1.58.37-.22.62-.22.8-.1.55.38.58,2.15,2,2.34,1.75.22,4.27-6.09,5.44-9,1-2.43-.67-3.11-2.56-4.82,1.12-.76,1.61-1.75.26-3.34-.35-3-1.24-4.88-2.29-7.7,0,0-10.69-5.34-10.93-5.21s-5.94,6.77-5.94,6.77c.35,1.94.11,4.22.6,6.39a17.48,17.48,0,0,0,2.34,5.45,2.79,2.79,0,0,0,1.51,1.54,2.33,2.33,0,0,1,.78.41c1.43,1.57,1.15,4.34,1.63,4.7A2.38,2.38,0,0,0,753.68,269.33Z"/><path class="cls-16" d="M755.8,258.86a23.47,23.47,0,0,0,1.91,1.55c.52.46.81.72,1.17.71a8.52,8.52,0,0,0-.27-3.22c0-1.69.2-3.73,1.37-4.27s2.54,1.54,3,3.43a2.93,2.93,0,0,0,1.49,2c1.31.6,1.75-.75,3.58-.72a17.78,17.78,0,0,1,4,1c-1.8-3-2.43-4-3-6.45-.76-3.29-4.34-8-7.91-9.12h.29c-2.8-.78-3.72-1.21-6.6-.41-3.05-.82-6.09.46-8.33,2.6a9.35,9.35,0,0,1,2.77-1.27c-9.16,5.71-5.5,13.36-8.26,14.81,4.31,1.39,6.17-.78,8.41-3.84a8.07,8.07,0,0,1,6.23,4.18v-1.06Z"/><path class="cls-12" d="M811.56,410c4.58,2.78,11.84.46,16.43,0,1.55,1,4.06.31,5,.12,2.09-.42,1.67-5.53,1.06-8.62-.49-2.47,0-4.4,0-7.12l-8.72-2.23c.4,4.47.85,6-.29,7.94-2.35,3.93-7.45,4.21-10.85,4.35C808.87,404.69,808.52,408.16,811.56,410Z"/><path class="cls-13" d="M841.15,313.64c1.63-6.5,2-9,1.24-13.25-.95-5.33-2.72-8.56-5.14-13.24l-21.44,4.61.38,14.26,5.67,39.23,1.79,55,12.09,1.26,2.6-39.12L834.9,345C835.67,336.05,839.34,320.9,841.15,313.64Z"/><path class="cls-13" d="M819.08,410.54c4.58,2.67,11.84.18,16.42-.36,1.56,1,4.06.22,5,0,2.09-.48,1.66-5.58,1-8.65-.49-2.46,0-4.4,0-7.12l-8.72-2c.4,4.46.85,6-.29,7.94-2.34,4-7.44,4.39-10.84,4.61C816.38,405.3,816,408.77,819.08,410.54Z"/><path class="cls-14" d="M844.76,313.64c.53-2.49.9-4.4,1.1-6a19.3,19.3,0,0,0-.05-8.78c-1.58-6.55-4.33-10.63-8.92-15.77l-23.41,6.25,6.53,9.9.38,1.38.88,6.79,1.94,5.81,3,31.62.2,1.55,4.46,55.44,6.4,1.1,5.65.09.84-40.55-2-17.95C842.17,335.58,843.21,320.9,844.76,313.64Z"/><path class="cls-14" d="M771.41,259c8.07,1.11,13,.13,21.36,0,13.43-.27,36.52,15.33,43.73,26.58.85,1.33-18.36,8.22-20.17,11.26C805,287.85,795.1,294.89,781,291c-6.36-1.75-8.41-6.36-13-17.23C770.93,269.27,772.61,261.54,771.41,259Z"/><path class="cls-13" d="M818.39,295.07a6.66,6.66,0,0,0-2.06,1.72C805,287.85,795.1,294.89,781,291c-6.36-1.75-8.41-6.36-13-17.23.16-.25.32-.5.47-.77,5.11,6,9.27,9.27,13.67,11.17,10.77,4.65,18.2.88,28.41,4.55A13.7,13.7,0,0,1,818.39,295.07Z"/><path class="cls-14" d="M805.4,269.38c9.3,7.34,5.77,20.43-4.68,18.84-11.24-1.71-19.1-1-23.63-10.53-4.79-10.14.08-13.31,6.68-14.22,8.18-1.12,14.71,2.41,21.63,5.91ZM785,259.21c-11.55,1.81-16.81,8.94-10.68,21,4.52,8.91,11.07,7.94,12.32,12,11,1.6,27.28-.11,29.38,6.8l23.28-13.09c-9-11.09-19.1-20.42-31.62-24.72a47.1,47.1,0,0,0-16.4-2.52A46.43,46.43,0,0,0,785,259.21Z"/><path class="cls-13" d="M806.17,287.55a9.33,9.33,0,0,1-5.45.67c-7-1.07-12.74-1.17-17.14-3.44-.48-.19-1-.38-1.48-.6a30.3,30.3,0,0,1-8.62-5.83c.26.61.55,1.23.88,1.87,4.52,8.91,11.07,7.94,12.32,12,11,1.6,27.24-.12,29.34,6.8l4.22,1-.91-2.88c-1.4-3.63-3.82-6.57-8.82-8.37A27.66,27.66,0,0,0,806.17,287.55Z"/><path class="cls-8" d="M799,312.58c-10.51,1-20.62-2.25-31.41-2.56,0-3.38,0-4.77-.51-6.44,0,0,21.28-1.63,30.16-3.17C803.76,299.27,806.11,311.73,799,312.58Z"/><path class="cls-9" d="M767.25,303.45c-1.61-.2-6.69-2.54-8.94-2.92a5,5,0,0,0-3.17.28c-1.19.33-3,.61-3.17.67a30.5,30.5,0,0,0-2.5,2c-.89,1.94-1.65,2.79-.75,3.37.54.36,1.28-.35,2.66-2l.94-.61a4.83,4.83,0,0,0-1.52,2.19,1.66,1.66,0,0,0,1.41,2.22c.36.07.35-.25.51-.61l.41-1c1.15-.3,2.17-.61,3.31-1a8.59,8.59,0,0,0-2.87,1.51c-.61.65-.13,1.28.36,1.9.68.86,1.76-.53,4.13-1.11a5.51,5.51,0,0,0-2.46,1.41c-.48.69.41,1.15,1.09,1.22a41.87,41.87,0,0,0,8.95,0c1-.13,1.57-.76,2.18-.94.14,0,7.37.7,7.52.72l-.69-8.07Z"/><path class="cls-28" d="M742.72,312.43c2.89,10.31,3.93,23.88,5,38.1.86,11.22,1.75,22.84,3.6,33.63,4,23.31,5.71,23.19,30.62,21.52,6.68-.45,51.19-1,61.74-1.25l0-1.18c-10.63.24-55.12.8-61.79,1.25-23.91,1.6-25.54,1.71-29.37-20.54-1.84-10.73-2.73-22.33-3.59-33.51-1.09-14.29-2.13-27.92-5-38.34Z"/><path class="cls-18" d="M761.33,270.89a21.63,21.63,0,0,0,1.59-2.7,28.19,28.19,0,0,0,1.54-4.55l-2.37-.68a26.32,26.32,0,0,1-1.39,4.17,16.53,16.53,0,0,1-1.15,2,11.64,11.64,0,0,0-3.89-1.56,21.44,21.44,0,0,0,1.39-2.39,28,28,0,0,0,1.54-4.56l-2.37-.67a29,29,0,0,1-1.39,4.17,25.57,25.57,0,0,1-2,3.16c-2.76.08-4.53,1.39-2.14,4.31,1.88,2.3,5.27,5.34,6.12,5.69,1.33.55,5.64-2,4.82-5.49A4.06,4.06,0,0,0,761.33,270.89Z"/><path class="cls-14" d="M766.5,272.08l4,4.05,9.1-9.05-.07-6.23c-3.32-.34-5.51-.1-8-3.62-2.29-3.29-2.24-5.62-3.89-8.2-3.8-5.93-8.71-10.07-17.42-6.47-5.11,2.12-6.58,6.79-8.1,11.7-1.4,4.54.23,8.1,3.19,7.15C749.74,260,761.81,255,766.5,272.08Z"/><path class="cls-17" d="M803.43,309.12a.41.41,0,0,1-.06.11,5.29,5.29,0,0,1-4.39,3.35c-10.51,1-11.71-.86-22.5-1.17a35.89,35.89,0,0,0-1-8.84s6.66-.32,13.7-1.08a49.38,49.38,0,0,0-3.51-8.72c-2.2-2.9-5.2-5.66-8-10.17-5.27-8.57-3.32-14,.61-16.3a10,10,0,0,1,11.89,1.61c1.85,1.82,6,8.53,9,17.76,1.56,6.29,3.86,12.13,4.19,19.52a7.33,7.33,0,0,1,.15,3.22,4.77,4.77,0,0,1-.17.65Z"/><rect class="cls-5" x="734.79" y="261.11" width="9.14" height="16.51" rx="2.54" ry="2.54"/><path class="cls-6" d="M743.93,269.59v5.49a2.54,2.54,0,0,1-2.54,2.53h-4.06a2.54,2.54,0,0,1-2.54-2.53v-5.57C739.92,271.32,741.28,267.31,743.93,269.59Z"/><rect class="cls-5" x="755.16" y="379.88" width="90.36" height="46.9" rx="12.01" ry="12.01"/><path class="cls-14" d="M764.46,359.44h22a3.26,3.26,0,0,1,2.65,1.29,7.91,7.91,0,0,1,1.17,2.11l5.4,12.87a2.55,2.55,0,0,1,.22,1,2.94,2.94,0,0,1-.8,2,4.57,4.57,0,0,1-1.58,1.11h0a4.22,4.22,0,0,1-1.65.35H764.46a3.91,3.91,0,0,1-2.77-1.15h0a3.91,3.91,0,0,1-1.15-2.77V363.36a3.93,3.93,0,0,1,3.93-3.92Zm22,2.7h-22a1.23,1.23,0,0,0-1.23,1.22v12.87a1.23,1.23,0,0,0,.36.86h0a1.22,1.22,0,0,0,.87.35h27.45a1.72,1.72,0,0,0,.61-.13h0a1.66,1.66,0,0,0,.6-.4c.06-.07.11-.13.11-.16l-5.4-12.86a5.82,5.82,0,0,0-.75-1.44A.74.74,0,0,0,786.5,362.14Z"/><path class="cls-14" d="M776.09,362.65a7.15,7.15,0,1,1-7.15,7.15A7.15,7.15,0,0,1,776.09,362.65Z"/><path class="cls-29" d="M776.09,364.44a5.36,5.36,0,1,1-5.36,5.36A5.36,5.36,0,0,1,776.09,364.44Z"/><rect x="771.66" y="369.57" width="8.86" height="0.45" transform="matrix(0.58, -0.81, 0.81, 0.58, 23.61, 785.54)"/><path class="cls-28" d="M776.12,414.78A9.85,9.85,0,1,1,766,424.63,10,10,0,0,1,776.12,414.78Z"/><path class="cls-29" d="M776.12,420.33a4.3,4.3,0,1,1-4.43,4.3A4.36,4.36,0,0,1,776.12,420.33Z"/><path class="cls-28" d="M824.56,414.78a9.85,9.85,0,1,1-10.15,9.85A10,10,0,0,1,824.56,414.78Z"/><path class="cls-29" d="M824.56,420.33a4.3,4.3,0,1,1-4.43,4.3A4.36,4.36,0,0,1,824.56,420.33Z"/><path class="cls-30" d="M316.81,135l-.66-3.8-7.32-.1H308l-.25-.78a29.71,29.71,0,0,0-1.38-3.57,31.07,31.07,0,0,0-1.81-3.37l-.43-.69.51-.62,4.67-5.64-2.46-3L300.48,117l-.71.39-.6-.55a31,31,0,0,0-3-2.39,29.07,29.07,0,0,0-3.26-2l-.71-.39.13-.79,1.23-7.23L290,102.71,286.22,109l-.42.71-.8-.18a29.72,29.72,0,0,0-3.78-.58,28.68,28.68,0,0,0-3.83-.11l-.81,0-.28-.77-2.55-6.86-3.8.65-.1,7.32V110l-.78.24a31.49,31.49,0,0,0-3.57,1.38,31.14,31.14,0,0,0-3.37,1.82l-.69.43-.62-.52-5.64-4.67-3,2.46,3.58,6.4.39.71-.55.6a31.77,31.77,0,0,0-4.4,6.24l-.38.72-.8-.14-7.23-1.22-1.33,3.6,6.29,3.75.7.42-.18.79a30.28,30.28,0,0,0-.58,3.78,30.68,30.68,0,0,0-.11,3.84l0,.81-.77.28L240,144.29l.65,3.79,7.33.11h.81l.25.77a29.84,29.84,0,0,0,1.37,3.58,32.11,32.11,0,0,0,1.82,3.37l.43.69-.51.62-4.67,5.64,2.45,2.95,6.4-3.57.71-.39.6.54a32.71,32.71,0,0,0,3,2.4,31.5,31.5,0,0,0,3.25,2l.72.38-.14.8-1.22,7.23,3.6,1.32,3.75-6.28.42-.7.79.18a30.15,30.15,0,0,0,3.79.58,30.46,30.46,0,0,0,3.83.11l.81,0,.28.76,2.55,6.87,3.79-.66.11-7.32v-.81l.78-.25a28.71,28.71,0,0,0,3.57-1.38,30.29,30.29,0,0,0,3.37-1.81l.69-.43.62.51,5.64,4.67,3-2.46L301,161.7l-.4-.71.55-.6a32.71,32.71,0,0,0,2.4-3,30.61,30.61,0,0,0,2-3.26l.38-.71.8.13,7.23,1.23,1.33-3.61L309,147.43l-.7-.41.17-.8a29.73,29.73,0,0,0,.59-3.78,32.48,32.48,0,0,0,.11-3.83l0-.81.76-.29,6.87-2.54Zm1.41-5.1,1,5.64.16.92-.88.32-7,2.6a32.55,32.55,0,0,1-.13,3.29c-.1,1.1-.26,2.19-.46,3.26l6.4,3.82.8.48-.32.88-2,5.37-.32.88-.92-.16-7.37-1.25a28.88,28.88,0,0,1-1.76,2.78,30.06,30.06,0,0,1-2,2.59l3.64,6.52.46.82-.72.6-4.4,3.66-.72.6-.72-.6-5.74-4.76a32.84,32.84,0,0,1-6,2.76l-.11,7.46v.93l-.92.16-5.64,1-.92.15-.33-.87-2.59-7a32.55,32.55,0,0,1-3.29-.13,31.77,31.77,0,0,1-3.27-.46l-3.81,6.4-.49.8L267,179l-5.37-2-.88-.32.15-.93,1.25-7.35a32.58,32.58,0,0,1-2.78-1.77c-.89-.63-1.76-1.31-2.59-2l-6.51,3.64-.82.46-.6-.72-3.66-4.4-.6-.72.6-.72,4.75-5.74c-.55-.95-1.06-1.92-1.52-2.92a30.54,30.54,0,0,1-1.23-3.06l-7.46-.11h-.94l-.16-.92-1-5.64-.16-.92.88-.33,7-2.59a32.53,32.53,0,0,1,.14-3.29,31.77,31.77,0,0,1,.46-3.27l-6.4-3.81-.8-.49.32-.87,2-5.37.32-.88.92.15,7.36,1.25a32.58,32.58,0,0,1,1.77-2.78c.63-.89,1.31-1.76,2-2.59l-3.63-6.51-.46-.82.72-.6,4.4-3.66.72-.6.72.6,5.74,4.75c.94-.55,1.92-1.06,2.92-1.52a31.09,31.09,0,0,1,3.06-1.24l.11-7.45V100l.92-.16,5.64-1,.92-.16.32.88,2.6,7a32.53,32.53,0,0,1,3.29.14,32,32,0,0,1,3.26.46l3.82-6.4.48-.81.88.33,5.37,2,.88.32-.16.92-1.25,7.36a31.08,31.08,0,0,1,2.78,1.77,32,32,0,0,1,2.59,2l6.52-3.63.82-.46.6.72,3.66,4.4.6.72-.6.72-4.76,5.74a29.94,29.94,0,0,1,1.53,2.92q.69,1.5,1.23,3.06l7.46.1.94,0,.15.92Zm-20.58,6.44a19.55,19.55,0,0,0-6.07-11.1l-.74-.67.57-.81,3.43-4.85.72-1,.94.81a27.66,27.66,0,0,1,6,34.66l-.62,1.08-1-.72L296,150.27l-.82-.58.47-.88a19.45,19.45,0,0,0,2-12.5Zm-.13-7.14a21.71,21.71,0,0,0-3.7-4.94l2.12-3a25.35,25.35,0,0,1,5.15,29.89l-3-2.13a21.75,21.75,0,0,0-.56-19.81Zm-9.91-6.76a19.5,19.5,0,0,0-12.51-2,19.53,19.53,0,0,0-6.06,2.1,19.92,19.92,0,0,0-5,4l-.67.74-.81-.58-4.85-3.42-1-.72.81-.94a27.5,27.5,0,0,1,16.26-9.19,27.53,27.53,0,0,1,18.4,3.22l1.08.62-.72,1L289,122.06l-.57.81-.87-.46Zm-5.73-4.28a21.52,21.52,0,0,0-7.16,0,21.62,21.62,0,0,0-11.7,6.06l-3-2.13A25.41,25.41,0,0,1,289.89,117l-2.13,3a21.71,21.71,0,0,0-5.89-1.84Zm-20.68,12.31a19.47,19.47,0,0,0,4.06,23.6l.74.68-.58.81L262,160.38l-.72,1-.94-.81a27.65,27.65,0,0,1-6-34.66l.62-1.08,1,.72,4.85,3.42.81.58-.46.87Zm-4.28,5.73a21.47,21.47,0,0,0,0,7.15A21.62,21.62,0,0,0,263,155l-2.13,3a25.41,25.41,0,0,1-5.15-29.89l3,2.13a21.37,21.37,0,0,0-1.84,5.89Zm12.32,20.68a19.51,19.51,0,0,0,23.59-4.06l.68-.74.81.57,4.85,3.43,1,.72-.82.94a27.75,27.75,0,0,1-25.73,9.19,27.88,27.88,0,0,1-8.92-3.22l-1.08-.62.72-1,3.42-4.85.58-.81.88.47Zm5.72,4.28a21.81,21.81,0,0,0,13.92-2.4,21.43,21.43,0,0,0,4.93-3.7l3,2.12a25.35,25.35,0,0,1-29.89,5.15l2.12-3a21.78,21.78,0,0,0,5.9,1.84Zm13-35a16.69,16.69,0,0,1,4.45,4.68h0a16.52,16.52,0,0,1-11.19,25.12,16.46,16.46,0,0,1-12.34-2.79,16.53,16.53,0,0,1,.72-27.49h0a16.5,16.5,0,0,1,18.36.48Zm2.53,5.89h0a14.15,14.15,0,0,1,2,5.19,14.26,14.26,0,0,1-2.41,10.67,14.31,14.31,0,0,1-9.24,5.83,14.26,14.26,0,0,1-16.49-11.65,14.25,14.25,0,0,1,2.41-10.66,14.47,14.47,0,0,1,4-3.84h0A14.27,14.27,0,0,1,290.48,132Z"/><path class="cls-30" d="M366.14,187.6l-.5-3.36-6.46-.23-.72,0-.2-.69a27.78,27.78,0,0,0-1.16-3.18,26.42,26.42,0,0,0-1.53-3l-.37-.62.47-.54,4.22-4.89-2.11-2.65-5.72,3-.63.34-.52-.5a27.62,27.62,0,0,0-5.43-4l-.62-.35.13-.7,1.22-6.36-3.16-1.24-3.42,5.48-.39.61-.69-.17a28.27,28.27,0,0,0-3.33-.59,27,27,0,0,0-3.38-.16h-.72l-.23-.67L328.77,157l-3.36.51-.23,6.46,0,.72-.69.2a26,26,0,0,0-3.18,1.15,27.5,27.5,0,0,0-3,1.54l-.61.36-.54-.46-4.89-4.23-2.66,2.11,3,5.72.33.63-.49.52a26.57,26.57,0,0,0-2.17,2.59,27,27,0,0,0-1.84,2.84l-.35.63-.7-.14L301,176.94l-1.24,3.16,5.48,3.43.61.38-.17.7a28.47,28.47,0,0,0-.59,3.32,29.32,29.32,0,0,0-.17,3.38V192l-.67.24-6.11,2.12.5,3.36,6.47.23.71,0,.21.69a26,26,0,0,0,1.15,3.18,25.07,25.07,0,0,0,1.54,3l.36.62-.46.54-4.23,4.89,2.11,2.65,5.72-3,.63-.34.52.5a28.33,28.33,0,0,0,2.59,2.17,27,27,0,0,0,2.84,1.83l.62.36-.13.7-1.22,6.35,3.16,1.24,3.42-5.47.39-.61.69.17a26.65,26.65,0,0,0,3.33.58,25.26,25.26,0,0,0,3.38.17h.72l.24.68,2.12,6.11,3.35-.51.24-6.46,0-.72.69-.2a26.87,26.87,0,0,0,6.19-2.69l.62-.37.54.47,4.89,4.23,2.65-2.12-3-5.71-.34-.64.49-.52a25.32,25.32,0,0,0,2.17-2.58,29.3,29.3,0,0,0,1.84-2.84l.35-.63.7.14,6.36,1.21,1.24-3.15-5.48-3.43-.61-.38.17-.7a26.35,26.35,0,0,0,.59-3.33,29.09,29.09,0,0,0,.17-3.38V190l.67-.24,6.11-2.12Zm1.35-4.47.75,5,.12.82-.78.27-6.22,2.16a27.7,27.7,0,0,1-.18,2.9c-.11,1-.27,1.93-.47,2.87l5.58,3.49.7.44-.3.77-1.85,4.7-.3.77-.81-.15-6.47-1.24c-.5.83-1,1.64-1.61,2.42s-1.19,1.53-1.84,2.25l3.09,5.82.38.73-.64.51-3.95,3.15-.65.52-.62-.54-5-4.31q-1.28.71-2.61,1.29a27.1,27.1,0,0,1-2.72,1l-.24,6.58,0,.83-.82.12-5,.75-.81.13-.27-.79-2.16-6.22c-1,0-2-.07-2.91-.17s-1.93-.27-2.87-.47l-3.49,5.57-.44.7-.77-.3-4.7-1.84-.77-.31.16-.81,1.24-6.47c-.83-.5-1.64-1-2.42-1.61s-1.53-1.19-2.25-1.84l-5.82,3.09-.73.39-.52-.65-3.15-3.95-.51-.65.54-.62,4.3-5a28.76,28.76,0,0,1-1.29-2.61c-.39-.89-.73-1.8-1-2.72l-6.58-.23-.83,0-.12-.82-.75-5-.12-.82.78-.27,6.22-2.16a27.7,27.7,0,0,1,.18-2.9c.11-1,.27-1.94.47-2.88L298,181.35l-.7-.44.3-.77,1.85-4.7.3-.77.81.16,6.48,1.24c.49-.83,1-1.64,1.6-2.42s1.19-1.53,1.84-2.25l-3.09-5.82-.38-.73.64-.52,3.95-3.14.65-.52.63.54,5,4.31a27.4,27.4,0,0,1,2.6-1.3c.9-.39,1.8-.73,2.72-1l.24-6.58,0-.82.82-.12,5-.76.81-.12.28.78,2.16,6.22a28,28,0,0,1,2.9.18c1,.11,1.93.27,2.87.47l3.49-5.58.44-.7.77.3,4.7,1.85.77.31-.15.8-1.24,6.48c.82.49,1.63,1,2.42,1.61a26.38,26.38,0,0,1,2.24,1.84l5.82-3.09.73-.39.52.65,3.15,3.95.51.64-.54.63-4.3,5c.47.84.9,1.71,1.29,2.6s.73,1.8,1,2.73l6.58.23.83,0,.12.82Zm-18.29,5.3a17.18,17.18,0,0,0-5.15-9.91l-.64-.61.52-.71L347,173l.66-.89.81.73a24.51,24.51,0,0,1,7.63,22.89,24.43,24.43,0,0,1-3,7.82l-.56.94-.89-.65-4.21-3.12-.71-.52.43-.77a17,17,0,0,0,2-11Zm0-6.31a19.17,19.17,0,0,0-3.18-4.43l1.94-2.62a22.44,22.44,0,0,1,4,26.49l-2.62-1.94a19.45,19.45,0,0,0,1.74-5.17,19.38,19.38,0,0,0-1.86-12.33ZM340.59,176a17.34,17.34,0,0,0-5.33-1.92,17,17,0,0,0-5.66-.08,17.1,17.1,0,0,0-9.92,5.15l-.6.64-.71-.53-4.22-3.11-.88-.65.73-.82a24.54,24.54,0,0,1,6.59-5.17,24.37,24.37,0,0,1,24.11.55l.94.57-.65.88-3.11,4.22-.52.7-.77-.43Zm-5-3.88a19.18,19.18,0,0,0-16.76,5l-2.62-1.93A22.46,22.46,0,0,1,336.51,169a22.34,22.34,0,0,1,6.21,2.22l-1.93,2.62a19.32,19.32,0,0,0-5.17-1.73Zm-18.49,10.48a17.26,17.26,0,0,0-2,11,17.32,17.32,0,0,0,1.75,5.39,16.87,16.87,0,0,0,3.41,4.52l.63.61-.52.7L317.28,209l-.66.89-.81-.74a24.41,24.41,0,0,1-4.62-30.7l.57-.94.88.65,4.21,3.11.71.53-.43.76Zm-3.89,5a19.21,19.21,0,0,0,5,16.75l-1.94,2.62a22.41,22.41,0,0,1-4-26.48l2.62,1.94a19.45,19.45,0,0,0-1.74,5.17ZM323.73,206a17.2,17.2,0,0,0,20.91-3.14l.6-.64.71.52,4.22,3.12.88.65-.73.81a24.4,24.4,0,0,1-30.7,4.62l-.94-.56.65-.88,3.11-4.22.52-.71.77.43Zm5,3.89A19.18,19.18,0,0,0,341,208.05a19,19,0,0,0,4.43-3.17l2.62,1.93a22.41,22.41,0,0,1-26.48,4l1.93-2.62a19,19,0,0,0,5.17,1.74Zm12.13-30.66a14.63,14.63,0,0,1,3.84,4.22h0a14.59,14.59,0,0,1,1.66,11,14.49,14.49,0,0,1-2.43,5.16,14.73,14.73,0,0,1-4.21,3.84,14.6,14.6,0,0,1-19.27-21.19,14.73,14.73,0,0,1,4.21-3.84h0a14.58,14.58,0,0,1,16.19.77Zm2.13,5.24h0A12.72,12.72,0,0,1,344.4,194,12.6,12.6,0,0,1,334,203.46a12.6,12.6,0,0,1-4.91-.23,12.6,12.6,0,0,1-9.43-10.36,12.6,12.6,0,0,1,.22-4.91,12.75,12.75,0,0,1,2.1-4.45,12.57,12.57,0,0,1,3.64-3.32h0a12.4,12.4,0,0,1,4.62-1.66,12.59,12.59,0,0,1,12.68,6Z"/><polygon class="cls-27" points="0 3.25 0 450.45 179.55 396.89 179.55 56.83 0 3.25"/><rect class="cls-5" x="112.47" y="371.25" width="93.95" height="48.76" rx="12.49" ry="12.49"/><path class="cls-14" d="M196.75,350H173.83a3.43,3.43,0,0,0-2.76,1.34,8.88,8.88,0,0,0-1.21,2.2l-5.62,13.38A2.77,2.77,0,0,0,164,368a3.05,3.05,0,0,0,.83,2,4.64,4.64,0,0,0,1.64,1.15h0a4.57,4.57,0,0,0,1.72.36h28.54a4.07,4.07,0,0,0,2.88-1.2h0a4.06,4.06,0,0,0,1.19-2.89V354.08a4.08,4.08,0,0,0-4.08-4.08Zm-22.92,2.81h22.92a1.28,1.28,0,0,1,.9.38,1.26,1.26,0,0,1,.37.89v13.38a1.27,1.27,0,0,1-.37.9h0a1.27,1.27,0,0,1-.9.37H168.21a1.83,1.83,0,0,1-.64-.13h0a1.66,1.66,0,0,1-.62-.42.44.44,0,0,1-.12-.17l5.62-13.37a6.32,6.32,0,0,1,.78-1.5A.77.77,0,0,1,173.83,352.81Z"/><path class="cls-14" d="M184.66,353.34a7.44,7.44,0,1,0,7.43,7.43A7.44,7.44,0,0,0,184.66,353.34Z"/><path class="cls-29" d="M184.66,355.2a5.57,5.57,0,1,0,5.57,5.57A5.57,5.57,0,0,0,184.66,355.2Z"/><polygon class="cls-21" points="182.17 356.89 181.79 357.16 187.15 364.66 187.53 364.39 182.17 356.89"/><path class="cls-28" d="M184.62,407.55a10.24,10.24,0,1,0,10.56,10.23A10.39,10.39,0,0,0,184.62,407.55Z"/><path class="cls-29" d="M184.62,413.32a4.47,4.47,0,1,0,4.61,4.46A4.53,4.53,0,0,0,184.62,413.32Z"/><path class="cls-28" d="M134.26,407.55a10.24,10.24,0,1,0,10.55,10.23A10.4,10.4,0,0,0,134.26,407.55Z"/><path class="cls-29" d="M134.26,413.32a4.47,4.47,0,1,0,4.6,4.46A4.54,4.54,0,0,0,134.26,413.32Z"/></g></g></svg>